<svg width="150" height="24" fill="none" xmlns="http://www.w3.org/2000/svg">
    <path d="M6.6 20.4c5.9-4 9.7-8.3 7.3-17a9.6 9.6 0 0 1 3.7 17.4h-.2a20 20 0 0 0-10.8-.4Z" fill="#1D2939"/>
    <path d="M7.7 18.6A7.1 7.1 0 0 1 13.5 6s.1 0 0-.1c0-1-.2-1.7-.5-2.7h-.1C1.4 2.7-.5 15.4 5.3 20.1h.2l2.2-1.5v-.1ZM33.5 18.6c-.7 0-1.4 0-2-.2-.7 0-1.3-.3-1.8-.6s-.9-.7-1.2-1.2c-.3-.5-.4-1.1-.4-1.8v-.4H30v.4c0 .5.2 1 .5 1.3.3.3.7.6 1.2.8a6.3 6.3 0 0 0 2.8.2l1-.2.7-.4.6-.6c.2-.2.2-.5.2-.9s0-.7-.3-1l-1-.7c-.4-.2-.8-.4-1.4-.5a39.5 39.5 0 0 0-3-.9l-1.4-.7c-.4-.2-.8-.6-1-1-.3-.4-.4-.9-.4-1.4 0-.6.1-1 .3-1.5a3 3 0 0 1 1-1c.5-.4 1-.6 1.6-.7a9 9 0 0 1 4.1 0c.6 0 1.1.3 1.5.6.5.3.9.7 1.1 1.1.3.5.4 1 .4 1.6v.3h-1.8v-.3c0-.4-.1-.8-.4-1.1-.2-.3-.6-.5-1-.7-.5-.2-1-.2-1.6-.2-.8 0-1.4 0-1.9.2-.5.1-.9.3-1.1.6-.3.3-.4.6-.4.9 0 .4.1.7.4 1 .2.2.6.5 1 .6l1.3.5a99.9 99.9 0 0 1 3.1 1c.6 0 1 .3 1.4.6.4.2.8.6 1 1a3.5 3.5 0 0 1-.3 3.7c-.5.6-1 1-1.9 1.3-.8.2-1.7.3-2.7.3ZM44.1 18.4V5.5h10v1.6h-8.2v4h7.3v1.5h-7.3v4.3H54v1.5h-10ZM58 18.4l5.2-12.9h2.3l5.1 13h-2l-1.2-3.3h-6.3L60 18.4h-1.8Zm3.7-4.7h5.1l-1.5-4a13.6 13.6 0 0 0-.5-1.2l-.2-.7-.3-.7a238.5 238.5 0 0 0-1 2.6l-1.6 4ZM75 18.4V5.5H82c.8 0 1.6.2 2.1.5.6.3 1 .8 1.4 1.4.2.5.4 1.2.4 2s-.2 1.6-.6 2.2c-.4.6-1 1.1-1.7 1.4l2.7 5.4h-2l-2.4-5.1h-5v5.1h-1.7Zm1.9-6.6h4.8c.7 0 1.3-.2 1.7-.7.4-.4.6-1 .6-1.8 0-.5-.1-.9-.3-1.2-.2-.3-.4-.6-.8-.7-.3-.2-.7-.3-1.2-.3h-4.8v4.7ZM90 18.4l5-12.9h2.4l5.1 13h-2l-1.2-3.3h-6.2l-1.3 3.2H90Zm3.6-4.7h5.1l-1.5-4a13.6 13.6 0 0 0-.4-1.2l-.3-.7-.3-.7a238.5 238.5 0 0 0-1 2.6l-1.6 4ZM107 18.4V5.5h4.8a8 8 0 0 1 3.5.7c.9.5 1.6 1.2 2.1 2.1.5 1 .8 2.2.8 3.7s-.3 2.7-.8 3.6c-.5 1-1.2 1.7-2.1 2.1a8 8 0 0 1-3.5.7H107Zm1.8-1.5h3c.7 0 1.3-.1 1.9-.3.5-.2 1-.4 1.4-.8.4-.4.7-.9 1-1.5l.2-2.1v-.4c0-.8 0-1.6-.3-2.1a3.5 3.5 0 0 0-2.3-2.3c-.6-.2-1.2-.3-2-.3h-3v9.8ZM121.8 18.4l5-12.9h2.4l5.1 13h-1.9l-1.3-3.3H125l-1.3 3.2h-1.8Zm3.6-4.7h5.1l-1.5-4a15.8 15.8 0 0 0-.4-1.2l-.3-.7-.2-.7h-.2a250.1 250.1 0 0 0-.9 2.6l-1.6 4ZM138.8 18.4V5.5h6.8c.9 0 1.6.2 2.2.5.5.3 1 .8 1.3 1.4.3.5.4 1.2.4 2s-.2 1.6-.6 2.2c-.4.6-1 1.1-1.6 1.4l2.7 5.4h-2l-2.5-5.1h-5v5.1h-1.7Zm1.8-6.6h4.8c.7 0 1.3-.2 1.7-.7.4-.4.6-1 .6-1.8 0-.5 0-.9-.3-1.2-.1-.3-.4-.6-.7-.7-.4-.2-.8-.3-1.3-.3h-4.8v4.7Z" fill="#1D2939"/>
</svg>
