<svg width="225" height="30" viewBox="0 0 225 30" fill="none" xmlns="http://www.w3.org/2000/svg">
<g clip-path="url(#clip0)">
<path d="M12.6787 0.237481C13.9945 0.000326402 15.1906 0.000326402 16.3868 0.118903C16.5064 0.593212 17.1045 2.25329 17.4633 4.62483C16.1475 4.2691 14.7122 4.2691 13.2768 4.50626C7.29595 5.45487 3.229 11.028 4.18593 16.9569C4.66439 19.9213 6.33902 22.4114 8.49211 24.0715C6.69787 25.3758 5.26248 26.3244 4.78401 26.5616C2.39169 24.1901 0.597443 21.107 -0.00063765 17.5497C-1.31642 9.24934 4.30555 1.54183 12.6787 0.237481Z" fill="#F5DC44"/>
<path d="M25.4782 4.50582C23.4448 2.49001 20.8132 1.18566 17.8228 0.592773C18.5405 2.96431 20.2151 9.60463 17.464 15.4149C14.8324 21.1066 8.8516 25.3754 6.33966 26.9169C8.1339 26.4426 10.287 26.0868 12.6793 25.9683C17.2247 25.7311 21.2917 26.324 23.4448 27.3912C24.8802 26.4426 26.0763 25.2568 27.1529 23.8339C29.4256 20.7509 30.5021 16.8378 29.7844 12.8062C29.306 9.48605 27.6313 6.6402 25.4782 4.50582Z" fill="white"/>
<path d="M50.1192 4.50586C50.9565 4.50586 51.5546 4.62444 52.2723 4.74301C52.8704 4.86159 53.4684 5.09874 53.8273 5.21732C54.3058 5.45448 54.7842 5.69163 55.1431 5.92878L53.4685 8.77463C53.1096 8.53748 52.8704 8.4189 52.5115 8.30033C52.1527 8.18175 51.9134 8.06317 51.435 7.94459C51.0761 7.82602 50.5977 7.82602 50.1192 7.82602C49.6407 7.82602 49.1623 7.94459 48.8034 8.06317C48.4446 8.30033 48.2053 8.4189 47.9661 8.77463C47.7269 9.01179 47.6073 9.36752 47.4876 9.60467C47.368 9.9604 47.368 10.1976 47.368 10.4347C47.368 11.1462 47.6073 11.7391 48.2053 12.0948C48.8034 12.4505 49.4015 12.8063 50.2388 12.9248C51.0761 13.162 51.9134 13.3991 52.8704 13.6363C53.8273 13.8734 54.6646 14.2292 55.5019 14.5849C56.3392 15.0592 57.0569 15.6521 57.5354 16.4821C58.1335 17.3122 58.3727 18.3794 58.3727 19.8023C58.3727 20.7509 58.1335 21.581 57.7746 22.411C57.4158 23.1225 56.8177 23.8339 56.2196 24.4268C55.5019 25.0197 54.6646 25.494 53.5881 25.8497C52.6311 26.2055 51.435 26.324 50.1192 26.324C49.0427 26.324 48.2053 26.2055 47.368 25.9683C46.5307 25.7312 45.9326 25.494 45.3346 25.2568C44.7365 25.0197 44.258 24.664 43.7795 24.3082C43.3011 23.9525 42.9422 23.7153 42.5834 23.4782L44.258 20.6323C45.4542 21.581 46.5307 22.1738 47.4876 22.5296C48.4446 22.8853 49.4015 23.0039 49.9996 23.0039C50.5977 23.0039 51.1957 22.8853 51.7938 22.7667C52.3919 22.6482 52.8704 22.411 53.3488 22.0553C53.8273 21.8181 54.1861 21.4624 54.545 20.9881C54.7842 20.5138 55.0235 20.0395 55.0235 19.4466C55.0235 18.8537 54.9038 18.2608 54.545 17.9051C54.1861 17.5493 53.8273 17.1936 53.3488 16.9565C52.8704 16.7193 52.2723 16.4821 51.5546 16.3636C50.8369 16.1264 50.2388 16.0078 49.5211 15.7707C48.8034 15.5335 48.2053 15.4149 47.4876 15.0592C46.7699 14.8221 46.2915 14.4663 45.6934 13.992C45.2149 13.5177 44.7365 13.0434 44.4972 12.4505C44.1384 11.8576 44.0188 11.0276 44.0188 10.079C44.0188 9.01179 44.258 8.06317 44.7365 7.23313C45.2149 6.52167 45.813 5.92878 46.4111 5.45448C47.0092 4.98017 47.7269 4.74301 48.4446 4.50586C49.1623 4.62444 49.7603 4.50586 50.1192 4.50586ZM65.4301 4.50586H78.9467V7.58886H68.6597V14.2292H77.0328V17.3122H68.6597V23.4782H78.9467V26.5612H65.4301V4.50586ZM101.793 26.324L100.478 23.3596H90.1906L88.8748 26.324H85.6452L95.3341 4.50586L105.023 26.324H101.793ZM91.626 20.158H99.0422L95.3341 11.5019L91.626 20.158Z" fill="white"/>
<path d="M123.324 26.324L119.975 18.8537C119.736 18.8537 119.616 18.8537 119.377 18.8537C119.138 18.8537 119.018 18.8537 118.898 18.8537H115.43V26.2055H112.2V4.50586H115.43H118.898C119.257 4.50586 119.736 4.50586 120.214 4.50586C120.693 4.50586 121.291 4.62444 121.769 4.74301C122.367 4.86159 122.846 5.09874 123.324 5.3359C123.803 5.69163 124.281 6.04736 124.76 6.52167C125.238 6.99598 125.477 7.70744 125.717 8.53748C125.956 9.36752 126.075 10.4347 126.075 11.6205C126.075 12.5691 125.956 13.3991 125.836 14.1106C125.717 14.8221 125.477 15.4149 125.118 16.0078C124.879 16.4821 124.52 16.9565 124.162 17.3122C123.803 17.6679 123.444 17.9051 122.965 18.1422L126.793 26.324H123.324ZM117.583 15.7707C118.181 15.7707 118.779 15.7707 119.497 15.7707C120.095 15.7707 120.693 15.6521 121.171 15.4149C121.65 15.1778 122.128 14.8221 122.487 14.2292C122.846 13.6363 122.965 12.9248 122.965 11.8576C122.965 10.7904 122.846 9.9604 122.487 9.4861C122.128 8.89321 121.769 8.53748 121.171 8.30033C120.693 8.06317 120.095 7.94459 119.497 7.94459C118.898 7.94459 118.3 7.94459 117.702 7.94459H115.549V16.0078H117.583V15.7707ZM149.759 26.324L148.444 23.3596H138.157L136.841 26.324H133.611L143.3 4.50586L152.989 26.324H149.759ZM139.592 20.158H147.008L143.3 11.5019L139.592 20.158ZM163.635 4.50586C164.472 4.50586 165.429 4.50586 166.386 4.50586C167.343 4.50586 168.3 4.62444 169.257 4.86159C170.214 5.09874 171.171 5.45448 172.008 5.81021C172.845 6.28452 173.683 6.8774 174.281 7.70744C174.998 8.53748 175.477 9.60467 175.836 10.7904C176.195 12.0948 176.434 13.6363 176.434 15.4149C176.434 17.1936 176.195 18.7351 175.836 20.0395C175.477 21.3438 174.879 22.2924 174.281 23.1225C173.683 23.9525 172.845 24.5454 172.008 25.0197C171.171 25.494 170.214 25.7312 169.257 25.9683C168.3 26.2055 167.343 26.324 166.386 26.324C165.429 26.324 164.472 26.324 163.635 26.324H160.166V4.50586H163.635ZM165.549 23.1225C166.386 23.1225 167.223 23.0039 168.18 22.8853C169.137 22.7667 169.855 22.411 170.692 21.8181C171.41 21.2252 172.008 20.5138 172.606 19.4466C173.085 18.3794 173.324 17.075 173.324 15.4149C173.324 14.2292 173.204 13.2806 172.965 12.4505C172.726 11.6205 172.367 10.909 172.008 10.3161C171.649 9.72325 171.171 9.24894 170.692 8.89321C170.214 8.53748 169.616 8.30033 169.137 8.06317C168.539 7.82602 167.941 7.70744 167.463 7.70744C166.865 7.58886 166.266 7.58886 165.668 7.58886H163.515V23.0039H165.549V23.1225ZM199.281 26.324L197.965 23.3596H187.678L186.362 26.324H183.132L192.821 4.50586L202.51 26.324H199.281ZM189.113 20.158H196.529L192.821 11.5019L189.113 20.158ZM220.811 26.324L217.343 18.8537C217.103 18.8537 216.984 18.8537 216.744 18.8537C216.505 18.8537 216.386 18.8537 216.266 18.8537H212.917V26.2055H209.687V4.50586H212.917H216.266C216.625 4.50586 217.103 4.50586 217.701 4.50586C218.18 4.50586 218.778 4.62444 219.256 4.74301C219.855 4.86159 220.333 5.09874 220.811 5.3359C221.29 5.69163 221.768 6.04736 222.247 6.52167C222.725 6.99598 222.965 7.70744 223.204 8.53748C223.443 9.36752 223.563 10.4347 223.563 11.6205C223.563 12.5691 223.443 13.3991 223.323 14.1106C223.204 14.8221 222.965 15.4149 222.606 16.0078C222.247 16.4821 222.008 16.9565 221.649 17.3122C221.29 17.6679 220.931 17.9051 220.453 18.1422L224.28 26.324H220.811ZM214.95 15.7707C215.548 15.7707 216.146 15.7707 216.864 15.7707C217.462 15.7707 218.06 15.6521 218.658 15.4149C219.137 15.1778 219.615 14.8221 219.974 14.2292C220.333 13.6363 220.453 12.9248 220.453 11.8576C220.453 10.7904 220.333 9.9604 219.974 9.4861C219.615 8.89321 219.256 8.53748 218.658 8.30033C218.18 8.06317 217.582 7.94459 216.984 7.94459C216.386 7.94459 215.788 7.94459 215.189 7.94459H212.917V16.0078H214.95V15.7707Z" fill="white"/>
</g>
<defs>
<clipPath id="clip0">
<rect width="225" height="30" fill="white"/>
</clipPath>
</defs>
</svg>
