<svg width="24" height="24" viewBox="0 0 24 24" fill="none" xmlns="http://www.w3.org/2000/svg">
<g clip-path="url(#clip0)">
<path d="M10.1428 0.189887C11.1955 0.000163466 12.1524 0.000163466 13.1093 0.0950251C13.205 0.474472 13.6835 1.80254 13.9706 3.69977C12.9179 3.41518 11.7696 3.41518 10.6213 3.60491C5.83666 4.3638 2.5831 8.8223 3.34865 13.5654C3.73142 15.9369 5.07112 17.929 6.79359 19.2571C5.3582 20.3006 4.20988 21.0595 3.82711 21.2492C1.91325 19.3519 0.477857 16.8855 -0.000607789 14.0397C-1.05323 7.39937 3.44434 1.23337 10.1428 0.189887Z" fill="#F5DC44"/>
<path d="M20.3826 3.60456C18.7559 1.99191 16.6506 0.948429 14.2583 0.474121C14.8325 2.37135 16.1722 7.68361 13.9712 12.3318C11.866 16.8852 7.08133 20.3002 5.07178 21.5334C6.50717 21.154 8.22964 20.8694 10.1435 20.7745C13.7798 20.5848 17.0334 21.0591 18.7559 21.9129C19.9042 21.154 20.8611 20.2053 21.7224 19.067C23.5405 16.6006 24.4018 13.4702 23.8276 10.2449C23.4448 7.58875 22.1051 5.31207 20.3826 3.60456Z" fill="white"/>
</g>
<defs>
<clipPath id="clip0">
<rect width="24" height="24" fill="white"/>
</clipPath>
</defs>
</svg>
