<svg width="225" height="30" viewBox="0 0 225 30" fill="none" xmlns="http://www.w3.org/2000/svg">
<g clip-path="url(#clip0)">
<path d="M12.6788 0.237633C13.9946 0.00047899 15.1907 0.00047899 16.3869 0.119056C16.5065 0.593364 17.1046 2.25344 17.4634 4.62499C16.1477 4.26925 14.7123 4.26925 13.2769 4.50641C7.29607 5.45502 3.22912 11.0281 4.18605 16.957C4.66452 19.9214 6.33914 22.4115 8.49223 24.0716C6.69799 25.376 5.2626 26.3246 4.78413 26.5617C2.39181 24.1902 0.597565 21.1072 -0.00051558 17.5499C-1.31629 9.24949 4.30567 1.54198 12.6788 0.237633Z" fill="#F5DC44"/>
<path d="M25.4782 4.50592C23.4447 2.49011 20.8132 1.18577 17.8228 0.59288C18.5405 2.96442 20.2151 9.60474 17.4639 15.415C14.8323 21.1067 8.85154 25.3755 6.3396 26.917C8.13384 26.4427 10.2869 26.0869 12.6793 25.9684C17.2247 25.7312 21.2916 26.3241 23.4447 27.3913C24.8801 26.4427 26.0763 25.2569 27.1528 23.834C29.4255 20.751 30.5021 16.8379 29.7844 12.8063C29.3059 9.48616 27.6313 6.64031 25.4782 4.50592Z" fill="#3E4757"/>
<path d="M50.1191 4.50594C50.9564 4.50594 51.5545 4.62451 52.2722 4.74309C52.8702 4.86167 53.4683 5.09882 53.8272 5.2174C54.3056 5.45455 54.7841 5.69171 55.143 5.92886L53.4683 8.77471C53.1095 8.53756 52.8702 8.41898 52.5114 8.3004C52.1526 8.18183 51.9133 8.06325 51.4349 7.94467C51.076 7.82609 50.5975 7.82609 50.1191 7.82609C49.6406 7.82609 49.1621 7.94467 48.8033 8.06325C48.4444 8.3004 48.2052 8.41898 47.966 8.77471C47.7267 9.01186 47.6071 9.3676 47.4875 9.60475C47.3679 9.96048 47.3679 10.1976 47.3679 10.4348C47.3679 11.1463 47.6071 11.7391 48.2052 12.0949C48.8033 12.4506 49.4014 12.8063 50.2387 12.9249C51.076 13.1621 51.9133 13.3992 52.8702 13.6364C53.8272 13.8735 54.6645 14.2293 55.5018 14.585C56.3391 15.0593 57.0568 15.6522 57.5353 16.4822C58.1334 17.3123 58.3726 18.3795 58.3726 19.8024C58.3726 20.751 58.1334 21.581 57.7745 22.4111C57.4157 23.1225 56.8176 23.834 56.2195 24.4269C55.5018 25.0198 54.6645 25.4941 53.5879 25.8498C52.631 26.2055 51.4349 26.3241 50.1191 26.3241C49.0425 26.3241 48.2052 26.2055 47.3679 25.9684C46.5306 25.7312 45.9325 25.4941 45.3344 25.2569C44.7363 25.0198 44.2579 24.664 43.7794 24.3083C43.3009 23.9526 42.9421 23.7154 42.5833 23.4783L44.2579 20.6324C45.454 21.581 46.5306 22.1739 47.4875 22.5297C48.4444 22.8854 49.4014 23.004 49.9995 23.004C50.5975 23.004 51.1956 22.8854 51.7937 22.7668C52.3918 22.6482 52.8702 22.4111 53.3487 22.0553C53.8272 21.8182 54.186 21.4625 54.5449 20.9881C54.7841 20.5138 55.0233 20.0395 55.0233 19.4466C55.0233 18.8538 54.9037 18.2609 54.5449 17.9051C54.186 17.5494 53.8272 17.1937 53.3487 16.9565C52.8702 16.7194 52.2722 16.4822 51.5545 16.3636C50.8368 16.1265 50.2387 16.0079 49.521 15.7708C48.8033 15.5336 48.2052 15.415 47.4875 15.0593C46.7698 14.8221 46.2914 14.4664 45.6933 13.9921C45.2148 13.5178 44.7363 13.0435 44.4971 12.4506C44.1383 11.8577 44.0186 11.0277 44.0186 10.0791C44.0186 9.01186 44.2579 8.06325 44.7363 7.23321C45.2148 6.52175 45.8129 5.92886 46.411 5.45455C47.0091 4.98024 47.7268 4.74309 48.4444 4.50594C49.1621 4.62451 49.7602 4.50594 50.1191 4.50594ZM65.4299 4.50594H78.9466V7.58894H68.6596V14.2293H77.0327V17.3123H68.6596V23.4783H78.9466V26.5613H65.4299V4.50594ZM101.793 26.3241L100.477 23.3597H90.1905L88.8747 26.3241H85.6451L95.334 4.50594L105.023 26.3241H101.793ZM91.6259 20.1581H99.0421L95.334 11.502L91.6259 20.1581Z" fill="#3E4757"/>
<path d="M123.324 26.3241L119.975 18.8538C119.736 18.8538 119.616 18.8538 119.377 18.8538C119.138 18.8538 119.018 18.8538 118.898 18.8538H115.43V26.2055H112.2V4.50594H115.43H118.898C119.257 4.50594 119.736 4.50594 120.214 4.50594C120.693 4.50594 121.291 4.62451 121.769 4.74309C122.367 4.86167 122.846 5.09882 123.324 5.33598C123.803 5.69171 124.281 6.04744 124.76 6.52175C125.238 6.99605 125.477 7.70752 125.717 8.53756C125.956 9.3676 126.075 10.4348 126.075 11.6206C126.075 12.5692 125.956 13.3992 125.836 14.1107C125.717 14.8221 125.477 15.415 125.118 16.0079C124.879 16.4822 124.52 16.9565 124.162 17.3123C123.803 17.668 123.444 17.9051 122.965 18.1423L126.793 26.3241H123.324ZM117.583 15.7708C118.181 15.7708 118.779 15.7708 119.497 15.7708C120.095 15.7708 120.693 15.6522 121.171 15.415C121.65 15.1779 122.128 14.8221 122.487 14.2293C122.846 13.6364 122.965 12.9249 122.965 11.8577C122.965 10.7905 122.846 9.96048 122.487 9.48617C122.128 8.89329 121.769 8.53756 121.171 8.3004C120.693 8.06325 120.095 7.94467 119.497 7.94467C118.898 7.94467 118.3 7.94467 117.702 7.94467H115.549V16.0079H117.583V15.7708ZM149.759 26.3241L148.444 23.3597H138.157L136.841 26.3241H133.611L143.3 4.50594L152.989 26.3241H149.759ZM139.592 20.1581H147.008L143.3 11.502L139.592 20.1581ZM163.635 4.50594C164.472 4.50594 165.429 4.50594 166.386 4.50594C167.343 4.50594 168.3 4.62451 169.257 4.86167C170.214 5.09882 171.171 5.45455 172.008 5.81028C172.845 6.28459 173.683 6.87748 174.281 7.70752C174.998 8.53756 175.477 9.60475 175.836 10.7905C176.195 12.0949 176.434 13.6364 176.434 15.415C176.434 17.1937 176.195 18.7352 175.836 20.0395C175.477 21.3439 174.879 22.2925 174.281 23.1225C173.683 23.9526 172.845 24.5455 172.008 25.0198C171.171 25.4941 170.214 25.7312 169.257 25.9684C168.3 26.2055 167.343 26.3241 166.386 26.3241C165.429 26.3241 164.472 26.3241 163.635 26.3241H160.166V4.50594H163.635ZM165.549 23.1225C166.386 23.1225 167.223 23.004 168.18 22.8854C169.137 22.7668 169.855 22.4111 170.692 21.8182C171.41 21.2253 172.008 20.5138 172.606 19.4466C173.085 18.3795 173.324 17.0751 173.324 15.415C173.324 14.2293 173.204 13.2806 172.965 12.4506C172.726 11.6206 172.367 10.9091 172.008 10.3162C171.649 9.72333 171.171 9.24902 170.692 8.89329C170.214 8.53756 169.616 8.3004 169.137 8.06325C168.539 7.82609 167.941 7.70752 167.463 7.70752C166.865 7.58894 166.266 7.58894 165.668 7.58894H163.515V23.004H165.549V23.1225ZM199.281 26.3241L197.965 23.3597H187.678L186.362 26.3241H183.132L192.821 4.50594L202.51 26.3241H199.281ZM189.113 20.1581H196.529L192.821 11.502L189.113 20.1581ZM220.811 26.3241L217.343 18.8538C217.103 18.8538 216.984 18.8538 216.744 18.8538C216.505 18.8538 216.386 18.8538 216.266 18.8538H212.917V26.2055H209.687V4.50594H212.917H216.266C216.625 4.50594 217.103 4.50594 217.701 4.50594C218.18 4.50594 218.778 4.62451 219.256 4.74309C219.855 4.86167 220.333 5.09882 220.811 5.33598C221.29 5.69171 221.768 6.04744 222.247 6.52175C222.725 6.99605 222.965 7.70752 223.204 8.53756C223.443 9.3676 223.563 10.4348 223.563 11.6206C223.563 12.5692 223.443 13.3992 223.323 14.1107C223.204 14.8221 222.965 15.415 222.606 16.0079C222.247 16.4822 222.008 16.9565 221.649 17.3123C221.29 17.668 220.931 17.9051 220.453 18.1423L224.28 26.3241H220.811ZM214.95 15.7708C215.548 15.7708 216.146 15.7708 216.864 15.7708C217.462 15.7708 218.06 15.6522 218.658 15.415C219.137 15.1779 219.615 14.8221 219.974 14.2293C220.333 13.6364 220.453 12.9249 220.453 11.8577C220.453 10.7905 220.333 9.96048 219.974 9.48617C219.615 8.89329 219.256 8.53756 218.658 8.3004C218.18 8.06325 217.582 7.94467 216.984 7.94467C216.386 7.94467 215.788 7.94467 215.189 7.94467H212.917V16.0079H214.95V15.7708Z" fill="#3E4757"/>
</g>
<defs>
<clipPath id="clip0">
<rect width="225" height="30" fill="white"/>
</clipPath>
</defs>
</svg>
