<svg width="74" height="20" viewBox="0 0 74 20" fill="none" xmlns="http://www.w3.org/2000/svg">
<path d="M19.3672 7.31934H26.8277V8.6785H23.8887V16.5314H22.3062V8.75402H19.3672V7.31934ZM26.4508 9.88665H27.8073V11.1703C27.8826 11.0193 27.958 10.7928 28.0334 10.6417C28.1087 10.4907 28.3348 10.3397 28.4854 10.1887C28.6362 10.0377 28.8623 9.96217 29.0884 9.81115C29.3145 9.73564 29.5405 9.66012 29.7666 9.66012C29.9174 9.66012 30.068 9.66012 30.1433 9.66012C30.2187 9.66012 30.2941 9.66012 30.3694 9.66012V11.0948C30.2941 11.0948 30.1433 11.0948 30.068 11.0193C29.9926 11.0193 29.842 11.0193 29.7666 11.0193C29.5405 11.0193 29.3145 11.0948 29.0884 11.1703C28.8623 11.2458 28.7115 11.3968 28.4854 11.6234C28.3348 11.8499 28.1841 12.0765 28.1087 12.3029C28.0334 12.5295 27.958 12.9071 27.958 13.2845V16.5314H26.4508V9.88665ZM37.1518 16.607H35.7199V15.7009C35.5692 16.0784 35.2678 16.305 34.8909 16.5314C34.5141 16.758 34.1374 16.8335 33.7606 16.8335C32.8563 16.8335 32.2534 16.607 31.8766 16.154C31.4998 15.7009 31.2738 15.0213 31.2738 14.1907V9.96217H32.781V14.0397C32.781 14.6437 32.8563 15.0213 33.1577 15.2479C33.3838 15.4743 33.6852 15.6253 34.1374 15.6253C34.4388 15.6253 34.6648 15.5498 34.8909 15.4743C35.117 15.3989 35.2678 15.2479 35.4185 15.0968C35.5692 14.9458 35.6446 14.7192 35.7199 14.4927C35.7953 14.2661 35.7953 14.0397 35.7953 13.7376V9.88665H37.3025L37.1518 16.607ZM39.6385 14.4172C39.7139 14.8703 39.8646 15.1723 40.1661 15.3234C40.4674 15.4743 40.7689 15.5498 41.2211 15.5498C41.3718 15.5498 41.5225 15.5498 41.6733 15.5498C41.824 15.5498 42.05 15.4743 42.2007 15.3989C42.3514 15.3234 42.5021 15.2479 42.5775 15.0968C42.6529 14.9458 42.7282 14.7948 42.7282 14.6437C42.7282 14.4927 42.6529 14.2661 42.5021 14.1907C42.3514 14.0397 42.2007 13.9642 41.9746 13.8887C41.7486 13.8131 41.5225 13.7376 41.2964 13.7376C41.0703 13.6621 40.7689 13.6621 40.5428 13.5866C40.2415 13.5111 40.0154 13.4356 39.7139 13.3601C39.4878 13.2845 39.2617 13.1336 39.0356 12.9826C38.8096 12.8315 38.6589 12.6805 38.5836 12.454C38.4328 12.2274 38.4328 11.9254 38.4328 11.6234C38.4328 11.2458 38.5082 10.9438 38.7343 10.7173C38.8849 10.4907 39.111 10.2642 39.4124 10.1132C39.7139 9.96217 40.0154 9.88665 40.3168 9.81115C40.6182 9.73564 40.995 9.73564 41.2964 9.73564C41.6733 9.73564 41.9746 9.73564 42.2761 9.81115C42.5775 9.88665 42.879 9.96217 43.1051 10.1887C43.3312 10.3397 43.5571 10.5662 43.7079 10.7928C43.8586 11.0193 44.0093 11.3968 44.0093 11.7744H42.5021C42.4268 11.3968 42.2761 11.1703 42.05 11.0948C41.824 10.9438 41.5225 10.9438 41.1457 10.9438C41.0703 10.9438 40.9196 10.9438 40.7689 10.9438C40.6182 10.9438 40.4674 11.0193 40.3922 11.0193C40.2415 11.0948 40.1661 11.1703 40.0907 11.2458C40.0154 11.3213 39.94 11.4723 39.94 11.6234C39.94 11.7744 40.0154 11.9254 40.0907 12.0765C40.1661 12.2274 40.3921 12.3029 40.6182 12.3784C40.8443 12.454 41.0703 12.5295 41.2964 12.5295C41.5225 12.5295 41.824 12.605 42.1253 12.6805C42.4268 12.756 42.6529 12.8315 42.879 12.9071C43.1051 12.9826 43.4064 13.1336 43.5571 13.2845C43.7832 13.4356 43.934 13.5866 44.0847 13.8131C44.2354 14.0397 44.2354 14.3418 44.2354 14.6437C44.2354 15.0213 44.16 15.3989 43.934 15.6253C43.7832 15.9274 43.4818 16.154 43.2558 16.305C43.0297 16.456 42.6529 16.607 42.2761 16.6825C41.8992 16.758 41.5979 16.8335 41.2211 16.8335C40.7689 16.8335 40.3922 16.758 40.0907 16.6825C39.7139 16.607 39.4124 16.456 39.1864 16.2295C38.9603 16.0029 38.7343 15.7764 38.5836 15.4743C38.4328 15.1723 38.3575 14.8703 38.3575 14.4172H39.6385ZM44.4615 9.88665H45.5919V7.8479H47.099V9.88665H48.4555V11.0193H47.099V14.5682C47.099 14.7192 47.099 14.8703 47.099 14.9458C47.099 15.0213 47.1744 15.1723 47.1744 15.2479C47.2497 15.3234 47.3251 15.3989 47.4005 15.3989C47.4758 15.3989 47.6266 15.4743 47.7773 15.4743C47.8525 15.4743 48.0033 15.4743 48.0786 15.4743C48.154 15.4743 48.3047 15.4743 48.3801 15.3989V16.5314C48.2294 16.5314 48.0786 16.5314 47.9279 16.607C47.7773 16.607 47.6266 16.607 47.4758 16.607C47.099 16.607 46.7976 16.607 46.5715 16.5314C46.3454 16.456 46.1194 16.3805 46.044 16.2295C45.8933 16.0784 45.8179 15.9274 45.7426 15.7009C45.6672 15.4743 45.6672 15.2479 45.6672 14.9458V11.0193H44.5369L44.4615 9.88665ZM49.4351 9.88665H50.7916V10.7928C51.0176 10.4152 51.3191 10.1132 51.6205 9.96217C51.922 9.81114 52.374 9.73564 52.8262 9.73564C53.3538 9.73564 53.806 9.81114 54.1827 10.0377C54.5595 10.1887 54.861 10.4907 55.1624 10.7928C55.3884 11.0948 55.6145 11.4723 55.7652 11.9254C55.9159 12.3784 55.9913 12.8315 55.9913 13.2845C55.9913 13.7376 55.9159 14.1907 55.8406 14.5682C55.6898 15.0213 55.5391 15.3989 55.3131 15.7009C55.087 16.0029 54.7856 16.305 54.4088 16.456C54.0319 16.607 53.6552 16.758 53.1277 16.758C52.9016 16.758 52.6755 16.758 52.5248 16.6825C52.374 16.607 52.0727 16.607 51.922 16.5314C51.7712 16.456 51.5452 16.305 51.3944 16.2295C51.2437 16.0784 51.093 15.9274 50.9422 15.7764V19.0988H49.4351V9.88665ZM54.5595 13.209C54.5595 12.9071 54.5595 12.605 54.4088 12.3029C54.3334 12.001 54.1827 11.7744 54.0319 11.5479C53.8812 11.3213 53.6552 11.1703 53.4291 11.0193C53.2031 10.8683 52.9016 10.7928 52.6001 10.7928C51.9973 10.7928 51.5452 11.0193 51.1683 11.3968C50.8669 11.8499 50.7163 12.3784 50.7163 13.1336C50.7163 13.5111 50.7163 13.8131 50.8669 14.0397C50.9422 14.3418 51.093 14.5682 51.2437 14.7948C51.3944 15.0213 51.6205 15.1723 51.8466 15.3234C52.0727 15.4743 52.374 15.4743 52.6755 15.4743C53.0523 15.4743 53.2784 15.3989 53.5045 15.2479C53.7306 15.0968 53.9566 14.9458 54.1073 14.7192C54.258 14.4927 54.3334 14.2661 54.4088 13.9642C54.5595 13.8131 54.5595 13.5111 54.5595 13.209ZM57.197 7.31934H58.7042V8.6785H57.197V7.31934ZM57.197 9.88665H58.7042V16.5314H57.197V9.88665ZM59.9853 7.31934H61.4924V16.5314H59.9853V7.31934ZM65.9386 16.758C65.4111 16.758 64.9589 16.6825 64.5068 16.456C64.0547 16.305 63.7532 16.0029 63.4518 15.7009C63.1503 15.3989 62.9242 15.0213 62.7735 14.5682C62.6229 14.1152 62.5475 13.6621 62.5475 13.1336C62.5475 12.605 62.6229 12.1519 62.7735 11.6989C62.9242 11.2458 63.1503 10.8683 63.4518 10.5662C63.7532 10.2642 64.0547 10.0377 64.5068 9.81115C64.9589 9.66012 65.4111 9.50911 65.9386 9.50911C66.4661 9.50911 66.9183 9.58462 67.3704 9.81115C67.8225 9.96217 68.124 10.2642 68.4255 10.5662C68.7268 10.8683 68.9529 11.2458 69.1036 11.6989C69.2544 12.1519 69.3297 12.605 69.3297 13.1336C69.3297 13.6621 69.2544 14.1152 69.1036 14.5682C68.9529 15.0213 68.7268 15.3989 68.4255 15.7009C68.124 16.0029 67.8225 16.2295 67.3704 16.456C66.9183 16.6825 66.4661 16.758 65.9386 16.758ZM65.9386 15.5498C66.24 15.5498 66.5415 15.4743 66.7676 15.3234C66.9937 15.1723 67.2196 15.0213 67.3704 14.7948C67.5211 14.5682 67.6718 14.3418 67.7472 14.0397C67.8226 13.7376 67.8226 13.5111 67.8226 13.209C67.8226 12.9071 67.8226 12.6805 67.7472 12.3784C67.6718 12.0765 67.5965 11.8499 67.3704 11.6234C67.2196 11.3968 66.9937 11.2458 66.7676 11.0948C66.5415 10.9438 66.24 10.8683 65.9386 10.8683C65.6372 10.8683 65.3358 10.9438 65.1097 11.0948C64.8836 11.2458 64.6575 11.3968 64.5068 11.6234C64.356 11.8499 64.2054 12.0765 64.1301 12.3784C64.0547 12.6805 64.0547 12.9071 64.0547 13.209C64.0547 13.5111 64.0547 13.8131 64.1301 14.0397C64.2054 14.2661 64.2807 14.5682 64.5068 14.7948C64.6575 15.0213 64.8836 15.1723 65.1097 15.3234C65.3358 15.5498 65.6372 15.5498 65.9386 15.5498ZM69.7065 9.88665H70.8369V7.8479H72.3441V9.88665H73.7V11.0193H72.3441V14.5682C72.3441 14.7192 72.3441 14.8703 72.3441 14.9458C72.3441 15.0213 72.4194 15.1723 72.4194 15.2479C72.4948 15.3234 72.5701 15.3989 72.6455 15.3989C72.7213 15.3989 72.8714 15.4743 73.0226 15.4743C73.0976 15.4743 73.2488 15.4743 73.3238 15.4743C73.3988 15.4743 73.55 15.4743 73.625 15.3989V16.5314C73.475 16.5314 73.3238 16.5314 73.1726 16.607C73.0226 16.607 72.8714 16.607 72.7213 16.607C72.3441 16.607 72.0426 16.607 71.8165 16.5314C71.5905 16.456 71.3644 16.3805 71.2891 16.2295C71.1383 16.0784 71.063 15.9274 70.9876 15.7009C70.9123 15.4743 70.9123 15.2479 70.9123 14.9458V11.0193H69.7819V9.88665H69.7065Z" fill="white"/>
<path d="M17.6338 7.31966H10.927L8.81692 0.901367L6.70683 7.31966H0L5.42576 11.3217L3.31579 17.74L8.74155 13.7379L14.1673 17.74L12.0573 11.3217L17.6338 7.31966Z" fill="#00B67A"/>
<path d="M12.6605 12.7559L12.2083 11.3213L8.81714 13.7375L12.6605 12.7559Z" fill="#005128"/>
</svg>
